<svg width="310" height="52" viewBox="0 0 310 52" fill="none" xmlns="http://www.w3.org/2000/svg">
<path d="M3.336 48.296C2.568 48.296 1.896 48.072 1.32 47.624C0.744 47.176 0.456 46.216 0.456 44.744C0.456 44.072 0.696 43 1.176 41.528C1.656 40.056 2.296 38.328 3.096 36.344C3.928 34.328 4.856 32.2 5.88 29.96C6.904 27.72 7.976 25.496 9.096 23.288C10.216 21.08 11.304 19.032 12.36 17.144C13.416 15.256 14.392 13.656 15.288 12.344C16.216 11 16.968 10.104 17.544 9.656C18.376 9.048 19.208 8.744 20.04 8.744C20.488 8.744 20.92 8.792 21.336 8.888C21.784 8.984 22.152 9.144 22.44 9.368C23.112 9.784 23.704 10.584 24.216 11.768C24.76 12.92 25.24 14.312 25.656 15.944C26.104 17.576 26.472 19.336 26.76 21.224C27.08 23.08 27.352 24.92 27.576 26.744C28.792 26.584 29.624 26.504 30.072 26.504C31.032 26.504 31.88 26.648 32.616 26.936C33.352 27.192 33.736 27.736 33.768 28.568C33.832 29.368 33.576 30.04 33 30.584C32.456 31.128 31.752 31.528 30.888 31.784C30.504 31.912 29.576 32.12 28.104 32.408C28.2 34.04 28.248 35.416 28.248 36.536C28.248 39.384 28.088 41.592 27.768 43.16C27.48 44.728 27.096 45.848 26.616 46.52C26.168 47.192 25.688 47.592 25.176 47.72C24.696 47.88 24.264 47.96 23.88 47.96C23.848 47.96 23.816 47.96 23.784 47.96C22.856 47.96 22.168 47.72 21.72 47.24C21.304 46.76 21.096 45.96 21.096 44.84V41.432C21.096 40.376 21.08 39.192 21.048 37.88C21.016 36.568 20.952 35.176 20.856 33.704C18.968 34.024 17.08 34.344 15.192 34.664C13.336 34.952 11.736 35.208 10.392 35.432C9.784 36.872 9.256 38.168 8.808 39.32C8.36 40.44 8.056 41.32 7.896 41.96C7.416 43.528 6.968 44.76 6.552 45.656C6.136 46.52 5.736 47.128 5.352 47.48C5 47.864 4.664 48.088 4.344 48.152C4.024 48.248 3.688 48.296 3.336 48.296ZM13.032 29.528C14.376 29.208 15.672 28.92 16.92 28.664C18.168 28.376 19.352 28.12 20.472 27.896C20.312 25.912 20.12 23.976 19.896 22.088C19.672 20.2 19.416 18.52 19.128 17.048C18.296 18.648 17.32 20.568 16.2 22.808C15.112 25.016 14.056 27.256 13.032 29.528ZM71.8646 48.488C69.9446 48.488 68.6166 48.104 67.8806 47.336C67.1766 46.6 66.8246 45.576 66.8246 44.264C66.8246 38.696 67.8646 32.888 69.9446 26.84C72.0566 20.76 75.0166 14.664 78.8246 8.552C79.4646 7.496 79.9926 6.872 80.4086 6.68C80.8246 6.488 81.2886 6.392 81.8006 6.392C82.5366 6.392 83.1766 6.648 83.7206 7.16C84.2966 7.672 84.5846 8.344 84.5846 9.176C84.5846 9.432 84.3126 10.136 83.7686 11.288C83.2246 12.44 82.5046 13.912 81.6086 15.704C80.7446 17.496 79.8006 19.528 78.7766 21.8C77.7526 24.04 76.7446 26.408 75.7526 28.904C74.7926 31.4 73.9606 33.912 73.2566 36.44C74.3446 35.064 75.5766 33.656 76.9526 32.216C78.3606 30.744 79.8166 29.4 81.3206 28.184C82.8246 26.936 84.2806 25.944 85.6886 25.208C87.0966 24.44 88.3606 24.056 89.4806 24.056C90.5366 24.056 91.5126 24.312 92.4086 24.824C93.3366 25.336 94.0886 26.136 94.6646 27.224C95.2406 28.312 95.5286 29.72 95.5286 31.448C95.5286 33.336 94.9846 35.272 93.8966 37.256C92.8406 39.24 91.2886 41.08 89.2406 42.776C87.2246 44.472 84.7446 45.848 81.8006 46.904C78.8886 47.96 75.5766 48.488 71.8646 48.488ZM73.8806 43.016C76.3446 42.824 78.5686 42.296 80.5526 41.432C82.5686 40.568 84.2966 39.496 85.7366 38.216C87.1766 36.936 88.2806 35.592 89.0486 34.184C89.8166 32.744 90.2006 31.384 90.2006 30.104C90.2006 29.816 90.1206 29.672 89.9606 29.672C89.2886 29.672 88.4406 29.976 87.4166 30.584C86.3926 31.16 85.2726 31.944 84.0566 32.936C82.8406 33.928 81.6086 35.016 80.3606 36.2C79.1126 37.384 77.9286 38.568 76.8086 39.752C75.6886 40.936 74.7126 42.024 73.8806 43.016ZM102.65 47.72C101.754 47.72 100.954 47.416 100.25 46.808C99.5775 46.2 99.2415 45.208 99.2415 43.832C99.2415 43.096 99.3375 42.056 99.5295 40.712C99.7535 39.368 100.042 37.912 100.394 36.344C100.746 34.744 101.13 33.16 101.546 31.592C101.994 30.024 102.426 28.632 102.842 27.416C103.258 26.168 103.626 25.24 103.946 24.632C104.362 23.896 104.746 23.448 105.098 23.288C105.482 23.096 105.85 23 106.202 23C106.842 23 107.434 23.192 107.978 23.576C108.554 23.96 108.842 24.808 108.842 26.12C108.842 26.632 108.746 27.464 108.554 28.616C108.362 29.736 108.122 31.048 107.834 32.552C107.546 34.056 107.226 35.608 106.874 37.208C106.554 38.808 106.234 40.328 105.914 41.768C105.626 43.176 105.386 44.36 105.194 45.32C105.034 46.12 104.698 46.712 104.186 47.096C103.706 47.512 103.194 47.72 102.65 47.72ZM108.17 18.248C107.114 18.248 106.138 17.944 105.242 17.336C104.346 16.696 103.898 15.72 103.898 14.408C103.898 13.32 104.17 12.44 104.714 11.768C105.258 11.096 105.898 10.616 106.634 10.328C107.402 10.008 108.074 9.848 108.65 9.848C109.226 9.848 109.866 9.976 110.57 10.232C111.274 10.456 111.882 10.888 112.394 11.528C112.938 12.136 113.21 13.016 113.21 14.168C113.21 14.936 112.938 15.64 112.394 16.28C111.85 16.888 111.178 17.368 110.378 17.72C109.61 18.072 108.874 18.248 108.17 18.248ZM122.328 48.632C120.344 48.632 118.744 47.944 117.528 46.568C116.312 45.16 115.704 42.904 115.704 39.8C115.704 37.816 115.928 35.832 116.376 33.848C116.856 31.832 117.512 29.928 118.344 28.136C119.208 26.312 120.2 24.696 121.32 23.288C122.472 21.88 123.736 20.776 125.112 19.976C126.488 19.144 127.912 18.728 129.384 18.728C131.88 18.728 133.832 19.4 135.24 20.744C136.648 22.088 137.352 23.8 137.352 25.88C137.352 27.48 136.904 28.936 136.008 30.248C135.144 31.528 133.96 32.68 132.456 33.704C130.952 34.728 129.272 35.656 127.416 36.488C125.56 37.32 123.656 38.072 121.704 38.744C121.544 39.896 121.464 40.92 121.464 41.816C121.464 42.36 121.768 42.632 122.376 42.632C123.816 42.632 125.352 42.408 126.984 41.96C128.648 41.48 130.328 40.872 132.024 40.136C133.72 39.368 135.352 38.584 136.92 37.784C138.488 36.952 139.912 36.168 141.192 35.432C142.504 34.664 143.576 34.056 144.408 33.608C145.272 33.128 145.832 32.888 146.088 32.888C146.792 32.888 147.304 33.096 147.624 33.512C147.944 33.928 148.104 34.376 148.104 34.856C148.104 35.08 147.672 35.576 146.808 36.344C145.976 37.112 144.824 38.024 143.352 39.08C141.912 40.104 140.28 41.176 138.456 42.296C136.664 43.384 134.792 44.424 132.84 45.416C130.92 46.376 129.048 47.144 127.224 47.72C125.432 48.328 123.8 48.632 122.328 48.632ZM122.52 34.472C123.832 33.704 125.128 32.904 126.408 32.072C127.72 31.208 128.808 30.248 129.672 29.192C130.536 28.104 130.968 26.84 130.968 25.4C130.968 24.984 130.856 24.712 130.632 24.584C130.408 24.424 130.088 24.344 129.672 24.344C128.552 24.344 127.528 24.84 126.6 25.832C125.704 26.824 124.904 28.104 124.2 29.672C123.528 31.208 122.968 32.808 122.52 34.472ZM149.388 47C148.62 47 147.852 46.744 147.084 46.232C146.348 45.688 145.74 44.92 145.26 43.928C144.78 42.904 144.54 41.672 144.54 40.232C144.54 38.312 144.796 36.264 145.308 34.088C145.852 31.912 146.508 29.736 147.276 27.56C148.044 25.384 148.796 23.336 149.532 21.416C149.884 20.488 150.316 19.864 150.828 19.544C151.34 19.192 152.012 19.016 152.844 19.016C154.732 19.016 155.676 19.96 155.676 21.848C155.676 22.168 155.532 22.792 155.244 23.72C154.956 24.616 154.572 25.72 154.092 27.032C153.644 28.344 153.164 29.768 152.652 31.304C152.172 32.808 151.724 34.344 151.308 35.912C150.924 37.448 150.62 38.904 150.396 40.28C151.132 39.16 151.948 37.768 152.844 36.104C153.772 34.408 154.748 32.632 155.772 30.776C156.828 28.92 157.884 27.192 158.94 25.592C159.996 23.96 161.036 22.632 162.06 21.608C163.084 20.584 164.06 20.072 164.988 20.072C165.788 20.072 166.54 20.232 167.244 20.552C167.98 20.84 168.62 21.416 169.164 22.28C169.708 23.112 170.124 24.312 170.412 25.88C170.732 27.448 170.892 29.512 170.892 32.072C170.892 33.352 171.004 34.6 171.228 35.816C171.484 37 171.9 37.992 172.476 38.792C173.052 39.56 173.868 39.944 174.924 39.944C176.748 39.944 178.38 39.608 179.82 38.936C181.26 38.264 182.524 37.48 183.612 36.584C184.7 35.688 185.612 34.904 186.348 34.232C186.796 33.784 187.18 33.432 187.5 33.176C187.852 32.92 188.14 32.792 188.364 32.792C189.036 32.792 189.516 32.968 189.804 33.32C190.124 33.672 190.284 34.152 190.284 34.76C190.284 35.08 190.012 35.672 189.468 36.536C188.924 37.4 188.156 38.392 187.164 39.512C186.204 40.6 185.1 41.656 183.852 42.68C182.604 43.704 181.26 44.552 179.82 45.224C178.38 45.896 176.908 46.232 175.404 46.232C172.876 46.232 170.78 45.784 169.116 44.888C167.484 43.96 166.268 42.424 165.468 40.28C164.668 38.104 164.268 35.144 164.268 31.4C164.268 31.304 164.268 31.144 164.268 30.92C164.268 29.928 164.252 29.048 164.22 28.28C164.22 27.512 164.172 26.888 164.076 26.408C163.532 27.4 162.876 28.584 162.108 29.96C161.372 31.336 160.572 32.808 159.708 34.376C158.844 35.912 157.948 37.432 157.02 38.936C156.092 40.408 155.164 41.752 154.236 42.968C153.34 44.184 152.476 45.16 151.644 45.896C150.812 46.632 150.06 47 149.388 47ZM221.26 22.808C221.26 23.192 221.132 23.528 220.876 23.816C220.62 24.104 220.3 24.328 219.916 24.488C219.372 24.712 218.428 25 217.084 25.352C215.74 25.704 214.108 26.104 212.188 26.552C210.3 27 208.268 27.464 206.092 27.944C203.916 28.392 201.74 28.824 199.564 29.24C198.732 32.312 197.884 35.48 197.02 38.744C196.156 41.976 195.292 45.16 194.428 48.296C194.108 49.416 193.724 50.264 193.276 50.84C192.828 51.448 192.06 51.752 190.972 51.752C189.788 51.752 188.988 51.368 188.572 50.6C188.188 49.864 188.14 48.856 188.428 47.576C189.26 44.088 190.028 40.84 190.732 37.832C191.468 34.824 192.06 32.392 192.508 30.536C190.588 30.856 188.908 31.112 187.468 31.304C186.028 31.464 185.004 31.528 184.396 31.496C183.724 31.432 183.164 31.16 182.716 30.68C182.268 30.2 182.06 29.608 182.092 28.904C182.156 28.264 182.444 27.72 182.956 27.272C183.468 26.792 184.076 26.504 184.78 26.408C185.772 26.312 187.052 26.168 188.62 25.976C190.188 25.784 191.916 25.56 193.804 25.304C194.22 23.672 194.7 21.992 195.244 20.264C195.788 18.504 196.348 16.824 196.924 15.224C197.532 13.592 198.108 12.168 198.652 10.952C199.196 9.736 199.692 8.856 200.14 8.312C200.492 7.896 200.924 7.576 201.436 7.352C201.98 7.128 202.508 7.016 203.02 7.016C203.692 7.016 204.236 7.256 204.652 7.736C205.068 8.216 205.276 8.776 205.276 9.416C205.276 9.672 205.26 9.944 205.228 10.232C205.196 10.488 205.132 10.744 205.036 11C204.428 12.6 203.772 14.536 203.068 16.808C202.396 19.08 201.692 21.576 200.956 24.296C203.356 23.944 205.708 23.592 208.012 23.24C210.348 22.856 212.46 22.504 214.348 22.184C216.268 21.832 217.804 21.528 218.956 21.272C219.596 21.048 220.14 21.096 220.588 21.416C221.036 21.704 221.26 22.168 221.26 22.808ZM222.013 48.584C219.741 48.584 217.917 47.784 216.541 46.184C215.165 44.552 214.477 42.376 214.477 39.656C214.477 38.792 214.589 37.912 214.813 37.016C215.069 36.12 215.373 35.288 215.725 34.52C215.533 34.232 215.373 33.864 215.245 33.416C215.149 32.936 215.101 32.376 215.101 31.736C215.101 29.656 215.469 27.752 216.205 26.024C216.941 24.264 217.933 22.744 219.181 21.464C220.429 20.184 221.805 19.192 223.309 18.488C224.813 17.784 226.333 17.432 227.869 17.432C230.493 17.432 232.637 18.312 234.301 20.072C235.997 21.832 236.845 24.568 236.845 28.28C236.845 30.136 236.557 32.024 235.981 33.944C235.405 35.864 234.621 37.704 233.629 39.464C232.669 41.192 231.549 42.744 230.269 44.12C229.021 45.496 227.677 46.584 226.237 47.384C224.829 48.184 223.421 48.584 222.013 48.584ZM221.245 32.36C221.405 32.712 221.485 33.128 221.485 33.608C221.485 34.088 221.389 34.584 221.197 35.096C221.005 35.608 220.813 36.296 220.621 37.16C220.429 37.992 220.333 39.192 220.333 40.76C220.333 41.176 220.381 41.528 220.477 41.816C220.605 42.072 220.877 42.2 221.293 42.2C222.381 42.2 223.405 41.848 224.365 41.144C225.357 40.44 226.237 39.512 227.005 38.36C227.805 37.208 228.477 35.928 229.021 34.52C229.597 33.08 230.029 31.624 230.317 30.152C230.637 28.648 230.797 27.256 230.797 25.976C230.797 25.144 230.637 24.568 230.317 24.248C229.997 23.928 229.437 23.768 228.637 23.768C227.549 23.768 226.429 24.12 225.277 24.824C224.157 25.496 223.213 26.424 222.445 27.608C221.677 28.76 221.293 30.072 221.293 31.544C221.293 31.832 221.277 32.104 221.245 32.36ZM231.757 14.408C231.469 14.408 231.117 14.088 230.701 13.448C230.285 12.776 229.853 11.944 229.405 10.952C228.957 9.928 228.557 8.904 228.205 7.88C227.693 8.84 227.165 9.832 226.621 10.856C226.077 11.88 225.645 12.696 225.325 13.304C224.973 14.008 224.605 14.568 224.221 14.984C223.837 15.4 223.277 15.608 222.541 15.608C221.837 15.608 221.277 15.384 220.861 14.936C220.477 14.456 220.285 13.72 220.285 12.728C220.285 11.992 220.509 11.096 220.957 10.04C221.437 8.984 222.029 7.896 222.733 6.776C223.469 5.656 224.237 4.6 225.037 3.608C225.837 2.616 226.573 1.816 227.245 1.208C227.917 0.599998 228.413 0.295998 228.733 0.295998C229.437 0.295998 229.965 0.407998 230.317 0.631999C230.669 0.823998 231.053 1.4 231.469 2.36C231.661 2.84 231.901 3.512 232.189 4.376C232.509 5.208 232.813 6.088 233.101 7.016C233.389 7.912 233.629 8.744 233.821 9.512C234.045 10.28 234.157 10.84 234.157 11.192C234.157 13.336 233.357 14.408 231.757 14.408ZM276.995 22.808C276.995 23.192 276.867 23.528 276.611 23.816C276.355 24.104 276.035 24.328 275.651 24.488C275.107 24.712 274.163 25 272.819 25.352C271.475 25.704 269.843 26.104 267.923 26.552C266.035 27 264.003 27.464 261.827 27.944C259.651 28.392 257.475 28.824 255.299 29.24C254.467 32.312 253.619 35.48 252.755 38.744C251.891 41.976 251.027 45.16 250.163 48.296C249.843 49.416 249.459 50.264 249.011 50.84C248.563 51.448 247.795 51.752 246.707 51.752C245.523 51.752 244.723 51.368 244.307 50.6C243.923 49.864 243.875 48.856 244.163 47.576C244.995 44.088 245.763 40.84 246.467 37.832C247.203 34.824 247.795 32.392 248.243 30.536C246.323 30.856 244.643 31.112 243.203 31.304C241.763 31.464 240.739 31.528 240.13 31.496C239.458 31.432 238.898 31.16 238.45 30.68C238.002 30.2 237.794 29.608 237.826 28.904C237.89 28.264 238.178 27.72 238.69 27.272C239.202 26.792 239.81 26.504 240.514 26.408C241.507 26.312 242.787 26.168 244.355 25.976C245.923 25.784 247.651 25.56 249.539 25.304C249.955 23.672 250.435 21.992 250.979 20.264C251.523 18.504 252.083 16.824 252.659 15.224C253.267 13.592 253.843 12.168 254.387 10.952C254.931 9.736 255.427 8.856 255.875 8.312C256.227 7.896 256.659 7.576 257.171 7.352C257.715 7.128 258.243 7.016 258.755 7.016C259.427 7.016 259.971 7.256 260.387 7.736C260.803 8.216 261.011 8.776 261.011 9.416C261.011 9.672 260.995 9.944 260.963 10.232C260.931 10.488 260.867 10.744 260.771 11C260.163 12.6 259.507 14.536 258.803 16.808C258.131 19.08 257.427 21.576 256.691 24.296C259.091 23.944 261.443 23.592 263.747 23.24C266.083 22.856 268.195 22.504 270.083 22.184C272.003 21.832 273.539 21.528 274.691 21.272C275.331 21.048 275.875 21.096 276.323 21.416C276.771 21.704 276.995 22.168 276.995 22.808ZM296.922 36.056C296.474 36.056 296.074 35.88 295.722 35.528C295.402 35.144 295.242 34.456 295.242 33.464C295.242 32.76 295.37 31.656 295.626 30.152C295.882 28.648 296.234 26.92 296.682 24.968C297.162 22.984 297.706 20.92 298.314 18.776C298.922 16.6 299.578 14.472 300.282 12.392C300.986 10.28 301.706 8.376 302.442 6.68C302.794 5.848 303.338 5.224 304.074 4.808C304.842 4.36 305.674 4.136 306.57 4.136C307.498 4.136 308.17 4.568 308.586 5.432C309.002 6.296 309.21 7.24 309.21 8.264C309.21 8.648 309.018 9.368 308.634 10.424C308.282 11.48 307.802 12.76 307.194 14.264C306.586 15.768 305.914 17.4 305.178 19.16C304.474 20.888 303.754 22.648 303.018 24.44C302.314 26.2 301.658 27.88 301.05 29.48C300.442 31.08 299.946 32.488 299.562 33.704C299.306 34.568 298.954 35.176 298.506 35.528C298.09 35.88 297.562 36.056 296.922 36.056ZM294.426 49.448C294.042 49.448 293.594 49.352 293.082 49.16C292.57 48.968 292.122 48.504 291.738 47.768C291.386 47.064 291.21 45.928 291.21 44.36C291.21 43.144 291.594 42.216 292.362 41.576C293.13 40.936 294.154 40.616 295.434 40.616C296.522 40.616 297.354 40.92 297.93 41.528C298.538 42.136 298.842 43 298.842 44.12C298.842 45.144 298.586 46.056 298.074 46.856C297.594 47.656 297.002 48.28 296.298 48.728C295.626 49.208 295.002 49.448 294.426 49.448Z" fill="black"/>
</svg>
